# xmcd CD database file
#
# Track frame offsets:
#	150
#	22685
#	43010
#	58535
#	80935
#	101212
#
# Disc length: 1554 seconds
#
# Revision: 3
# Processed by: cddbd v1.5.1PL2 Copyright (c) Steve Scherf et al.
# Submitted via: CDex 1.51
#
DISCID=47061006
DTITLE=LITTLE - I SING, I SAY
DYEAR=2004
DGENRE=Hip-Hop
TTITLE0=I SING, I SAY
TTITLE1=サバーバリアン feat. Loop Junktion
TTITLE2=踏み上がり feat. BOLT, SKIPP, YOSHI
TTITLE3=I SING, I SAY (instrumental)
TTITLE4=サバーバリアン feat. Loop Junktion (instrumental)
TTITLE5=踏み上がり feat. BOLT, SKIPP, YOSHI (insturmental)
EXTD=YEAR: 2004
EXTT0=
EXTT1=
EXTT2=
EXTT3=
EXTT4=
EXTT5=
PLAYORDER=
